<svg width="38" height="38" viewBox="0 0 38 38" fill="none" xmlns="http://www.w3.org/2000/svg">
<path d="M35.5 4.33335H30V2.50002C30 2.01379 29.8069 1.54747 29.463 1.20366C29.1192 0.859841 28.6529 0.666687 28.1667 0.666687H9.83335C9.34712 0.666687 8.88081 0.859841 8.53699 1.20366C8.19317 1.54747 8.00002 2.01379 8.00002 2.50002V4.33335H2.50002C2.01379 4.33335 1.54747 4.52651 1.20366 4.87032C0.859841 5.21414 0.666687 5.68046 0.666687 6.16669V11.6667C0.666687 13.6116 1.4393 15.4769 2.81457 16.8521C4.18984 18.2274 6.0551 19 8.00002 19H10.8234C12.4817 20.8501 14.7175 22.0843 17.1667 22.5017V26.3334H15.3334C13.8747 26.3334 12.4757 26.9128 11.4443 27.9443C10.4128 28.9757 9.83335 30.3747 9.83335 31.8334V35.5C9.83335 35.9862 10.0265 36.4526 10.3703 36.7964C10.7141 37.1402 11.1805 37.3334 11.6667 37.3334H26.3334C26.8196 37.3334 27.2859 37.1402 27.6297 36.7964C27.9735 36.4526 28.1667 35.9862 28.1667 35.5V31.8334C28.1667 30.3747 27.5872 28.9757 26.5558 27.9443C25.5243 26.9128 24.1254 26.3334 22.6667 26.3334H20.8334V22.5017C23.2826 22.0843 25.5184 20.8501 27.1767 19H30C31.9449 19 33.8102 18.2274 35.1855 16.8521C36.5607 15.4769 37.3334 13.6116 37.3334 11.6667V6.16669C37.3334 5.68046 37.1402 5.21414 36.7964 4.87032C36.4526 4.52651 35.9862 4.33335 35.5 4.33335V4.33335ZM8.00002 15.3334C7.02756 15.3334 6.09493 14.947 5.4073 14.2594C4.71966 13.5718 4.33335 12.6391 4.33335 11.6667V8.00002H8.00002V11.6667C8.00405 12.9165 8.22105 14.1565 8.64169 15.3334H8.00002ZM22.6667 30C23.1529 30 23.6192 30.1932 23.963 30.537C24.3069 30.8808 24.5 31.3471 24.5 31.8334V33.6667H13.5V31.8334C13.5 31.3471 13.6932 30.8808 14.037 30.537C14.3808 30.1932 14.8471 30 15.3334 30H22.6667ZM26.3334 11.6667C26.3334 13.6116 25.5607 15.4769 24.1855 16.8521C22.8102 18.2274 20.9449 19 19 19C17.0551 19 15.1898 18.2274 13.8146 16.8521C12.4393 15.4769 11.6667 13.6116 11.6667 11.6667V4.33335H26.3334V11.6667ZM33.6667 11.6667C33.6667 12.6391 33.2804 13.5718 32.5927 14.2594C31.9051 14.947 30.9725 15.3334 30 15.3334H29.3584C29.779 14.1565 29.996 12.9165 30 11.6667V8.00002H33.6667V11.6667Z" fill="white"/>
</svg>
