<svg width="30" height="30" viewBox="0 0 30 30" fill="none" xmlns="http://www.w3.org/2000/svg">
<path d="M15 5.66667C13.154 5.66667 11.3495 6.21406 9.81466 7.23962C8.27981 8.26518 7.08353 9.72285 6.37711 11.4283C5.67069 13.1337 5.48586 15.0104 5.84599 16.8208C6.20612 18.6313 7.09503 20.2944 8.40032 21.5997C9.70561 22.905 11.3687 23.7939 13.1791 24.154C14.9896 24.5141 16.8663 24.3293 18.5717 23.6229C20.2771 22.9165 21.7348 21.7202 22.7604 20.1853C23.7859 18.6505 24.3333 16.846 24.3333 15C24.3333 12.5246 23.35 10.1507 21.5996 8.40034C19.8493 6.65 17.4753 5.66667 15 5.66667V5.66667ZM15 21.6667C13.6814 21.6667 12.3925 21.2757 11.2962 20.5431C10.1999 19.8106 9.34537 18.7694 8.84079 17.5512C8.33621 16.3331 8.20418 14.9926 8.46142 13.6994C8.71865 12.4062 9.35359 11.2183 10.2859 10.286C11.2183 9.35361 12.4062 8.71867 13.6994 8.46143C14.9926 8.2042 16.333 8.33622 17.5512 8.84081C18.7694 9.34539 19.8106 10.1999 20.5431 11.2962C21.2757 12.3925 21.6667 13.6815 21.6667 15C21.6667 16.7681 20.9643 18.4638 19.714 19.714C18.4638 20.9643 16.7681 21.6667 15 21.6667V21.6667ZM15 11C14.2089 11 13.4355 11.2346 12.7777 11.6741C12.1199 12.1136 11.6072 12.7384 11.3045 13.4693C11.0017 14.2002 10.9225 15.0044 11.0768 15.7804C11.2312 16.5563 11.6121 17.269 12.1716 17.8284C12.731 18.3878 13.4437 18.7688 14.2196 18.9231C14.9955 19.0775 15.7998 18.9983 16.5307 18.6955C17.2616 18.3928 17.8863 17.8801 18.3259 17.2223C18.7654 16.5645 19 15.7911 19 15C19 13.9391 18.5786 12.9217 17.8284 12.1716C17.0783 11.4214 16.0609 11 15 11ZM15 16.3333C14.7363 16.3333 14.4785 16.2551 14.2592 16.1086C14.04 15.9621 13.8691 15.7539 13.7681 15.5102C13.6672 15.2666 13.6408 14.9985 13.6923 14.7399C13.7437 14.4812 13.8707 14.2437 14.0572 14.0572C14.2436 13.8707 14.4812 13.7437 14.7399 13.6923C14.9985 13.6408 15.2666 13.6672 15.5102 13.7682C15.7539 13.8691 15.9621 14.04 16.1086 14.2592C16.2551 14.4785 16.3333 14.7363 16.3333 15C16.3333 15.3536 16.1928 15.6928 15.9428 15.9428C15.6927 16.1929 15.3536 16.3333 15 16.3333ZM15 0.333336C12.0992 0.333336 9.26354 1.19352 6.85162 2.80511C4.4397 4.41671 2.55984 6.70733 1.44975 9.38731C0.339668 12.0673 0.0492189 15.0163 0.615135 17.8613C1.18105 20.7064 2.57792 23.3197 4.62909 25.3709C6.68026 27.4221 9.29361 28.8189 12.1387 29.3849C14.9837 29.9508 17.9327 29.6603 20.6127 28.5502C23.2927 27.4401 25.5833 25.5603 27.1949 23.1484C28.8065 20.7364 29.6667 17.9008 29.6667 15C29.6667 11.1102 28.1214 7.37964 25.3709 4.6291C22.6204 1.87857 18.8898 0.333336 15 0.333336V0.333336ZM15 27C12.6266 27 10.3065 26.2962 8.33314 24.9776C6.35975 23.6591 4.82168 21.7849 3.91343 19.5922C3.00518 17.3995 2.76754 14.9867 3.23056 12.6589C3.69359 10.3311 4.83647 8.19295 6.5147 6.51472C8.19293 4.83649 10.3311 3.6936 12.6589 3.23058C14.9867 2.76756 17.3995 3.0052 19.5922 3.91345C21.7849 4.8217 23.659 6.35977 24.9776 8.33316C26.2962 10.3065 27 12.6266 27 15C27 18.1826 25.7357 21.2348 23.4853 23.4853C21.2348 25.7357 18.1826 27 15 27V27Z" fill="#EDCB50"/>
</svg>
