<svg width="44" height="44" viewBox="0 0 44 44" fill="none" xmlns="http://www.w3.org/2000/svg">
<rect width="44" height="44" rx="8" fill="#EAEBEC"/>
<path d="M28.83 19.44C28.7383 19.3043 28.6146 19.1932 28.4699 19.1165C28.3252 19.0397 28.1638 18.9998 28 19H25V17H27.2C27.4652 17 27.7196 16.8946 27.9071 16.7071C28.0946 16.5196 28.2 16.2652 28.2 16V12C28.2 11.7348 28.0946 11.4804 27.9071 11.2929C27.7196 11.1054 27.4652 11 27.2 11H24C22.4617 11 20.9865 11.6111 19.8988 12.6988C18.8111 13.7865 18.2 15.2617 18.2 16.8V19H16C15.7348 19 15.4804 19.1054 15.2929 19.2929C15.1054 19.4804 15 19.7348 15 20V24C15 24.2652 15.1054 24.5196 15.2929 24.7071C15.4804 24.8946 15.7348 25 16 25H18.2V32C18.2 32.2652 18.3054 32.5196 18.4929 32.7071C18.6804 32.8946 18.9348 33 19.2 33H24C24.2652 33 24.5196 32.8946 24.7071 32.7071C24.8946 32.5196 25 32.2652 25 32V25H26.4C26.6003 25.0002 26.796 24.9402 26.9618 24.8279C27.1276 24.7156 27.2559 24.5561 27.33 24.37L28.93 20.37C28.9904 20.2186 29.0129 20.0547 28.9954 19.8926C28.978 19.7305 28.9212 19.5751 28.83 19.44ZM25.72 23H24C23.7348 23 23.4804 23.1054 23.2929 23.2929C23.1054 23.4804 23 23.7348 23 24V31H20.2V24C20.2 23.7348 20.0946 23.4804 19.9071 23.2929C19.7196 23.1054 19.4652 23 19.2 23H17V21H19.2C19.4652 21 19.7196 20.8946 19.9071 20.7071C20.0946 20.5196 20.2 20.2652 20.2 20V16.8C20.2026 15.793 20.6038 14.828 21.3159 14.1159C22.028 13.4038 22.993 13.0026 24 13H26.2V15H25.4C25.0614 14.9507 24.7163 14.9714 24.3861 15.0608C24.0558 15.1503 23.7474 15.3066 23.48 15.52C23.3177 15.6899 23.1915 15.8909 23.109 16.1109C23.0265 16.3309 22.9894 16.5653 23 16.8V20C23 20.2652 23.1054 20.5196 23.2929 20.7071C23.4804 20.8946 23.7348 21 24 21H26.52L25.72 23Z" fill="#7F848D"/>
</svg>
