<svg width="44" height="44" viewBox="0 0 44 44" fill="none" xmlns="http://www.w3.org/2000/svg">
<rect width="44" height="44" rx="8" fill="#EAEBEC"/>
<path d="M22 17C21.0111 17 20.0444 17.2932 19.2221 17.8427C18.3999 18.3921 17.759 19.173 17.3806 20.0866C17.0022 21.0002 16.9031 22.0055 17.0961 22.9755C17.289 23.9454 17.7652 24.8363 18.4645 25.5355C19.1637 26.2348 20.0546 26.711 21.0245 26.9039C21.9945 27.0969 22.9998 26.9978 23.9134 26.6194C24.827 26.241 25.6079 25.6001 26.1573 24.7779C26.7068 23.9556 27 22.9889 27 22C27 20.6739 26.4732 19.4021 25.5355 18.4645C24.5979 17.5268 23.3261 17 22 17ZM22 25C21.4067 25 20.8266 24.8241 20.3333 24.4944C19.8399 24.1648 19.4554 23.6962 19.2284 23.1481C19.0013 22.5999 18.9419 21.9967 19.0576 21.4147C19.1734 20.8328 19.4591 20.2982 19.8787 19.8787C20.2982 19.4591 20.8328 19.1734 21.4147 19.0576C21.9967 18.9419 22.5999 19.0013 23.1481 19.2284C23.6962 19.4554 24.1648 19.8399 24.4944 20.3333C24.8241 20.8266 25 21.4067 25 22C25 22.7956 24.6839 23.5587 24.1213 24.1213C23.5587 24.6839 22.7956 25 22 25ZM27 16C26.8022 16 26.6089 16.0586 26.4444 16.1685C26.28 16.2784 26.1518 16.4346 26.0761 16.6173C26.0004 16.8 25.9806 17.0011 26.0192 17.1951C26.0578 17.3891 26.153 17.5673 26.2929 17.7071C26.4327 17.847 26.6109 17.9422 26.8049 17.9808C26.9989 18.0194 27.2 17.9996 27.3827 17.9239C27.5654 17.8482 27.7216 17.72 27.8315 17.5556C27.9414 17.3911 28 17.1978 28 17C28 16.7348 27.8946 16.4804 27.7071 16.2929C27.5196 16.1054 27.2652 16 27 16ZM31.94 18.24C31.9234 17.3854 31.7611 16.5399 31.46 15.74C31.1808 15.0121 30.7516 14.351 30.2003 13.7997C29.649 13.2484 28.9879 12.8192 28.26 12.54C27.4601 12.2389 26.6146 12.0766 25.76 12.06C24.79 12 24.47 12 22 12C19.53 12 19.21 12 18.24 12.06C17.3854 12.0766 16.5399 12.2389 15.74 12.54C15.0121 12.8192 14.351 13.2484 13.7997 13.7997C13.2484 14.351 12.8192 15.0121 12.54 15.74C12.2389 16.5399 12.0766 17.3854 12.06 18.24C12 19.22 12 19.54 12 22C12 24.46 12 24.78 12.06 25.76C12.0766 26.6146 12.2389 27.4601 12.54 28.26C12.8192 28.9879 13.2484 29.649 13.7997 30.2003C14.351 30.7516 15.0121 31.1808 15.74 31.46C16.5399 31.7611 17.3854 31.9234 18.24 31.94C19.24 31.94 19.53 32 22 32C24.47 32 24.79 32 25.76 31.94C26.6146 31.9234 27.4601 31.7611 28.26 31.46C28.9879 31.1808 29.649 30.7516 30.2003 30.2003C30.7516 29.649 31.1808 28.9879 31.46 28.26C31.7611 27.4601 31.9234 26.6146 31.94 25.76C31.94 24.76 32 24.46 32 22C32 19.54 32 19.22 31.94 18.24ZM29.94 25.67C29.9225 26.3046 29.8043 26.9324 29.59 27.53C29.4128 28.0023 29.1327 28.4293 28.77 28.78C28.4214 29.1428 27.9936 29.4201 27.52 29.59C26.921 29.8131 26.289 29.9348 25.65 29.95C24.71 29.95 24.42 30 21.99 30C19.56 30 19.28 30 18.34 30C17.702 29.9835 17.0708 29.8654 16.47 29.65C15.9977 29.4728 15.5707 29.1927 15.22 28.83C14.8572 28.4814 14.5799 28.0536 14.41 27.58C14.1878 26.9842 14.0661 26.3557 14.05 25.72C14.05 24.72 14.05 24.47 14.05 22.05C14.05 19.63 14.05 19.34 14.05 18.38C14.0672 17.7412 14.1888 17.1095 14.41 16.51C14.5826 16.0406 14.8595 15.6166 15.22 15.27C15.5686 14.9072 15.9964 14.6299 16.47 14.46C17.069 14.2369 17.701 14.1152 18.34 14.1C19.28 14 19.57 14 22 14C24.43 14 24.72 14 25.66 14C26.3021 14.0163 26.9373 14.1379 27.54 14.36C28.0094 14.5326 28.4334 14.8095 28.78 15.17C29.1428 15.5186 29.4201 15.9464 29.59 16.42C29.8348 17.0286 29.9735 17.6746 30 18.33C30 19.33 30.05 19.58 30.05 22C30.05 24.42 30 24.71 30 25.67H29.94Z" fill="#7F848D"/>
</svg>
