<svg width="44" height="44" viewBox="0 0 44 44" fill="none" xmlns="http://www.w3.org/2000/svg">
<rect width="44" height="44" rx="8" fill="#EAEBEC"/>
<path d="M25.4 21.16L20.5 18C20.348 17.9123 20.1755 17.8661 20 17.8661C19.8245 17.8661 19.652 17.9123 19.5 18C19.3517 18.0856 19.2279 18.2077 19.1404 18.3548C19.0528 18.5019 19.0045 18.6689 19 18.84V25.16C19.0013 25.3382 19.0502 25.5129 19.1416 25.6658C19.233 25.8188 19.3637 25.9445 19.52 26.0301C19.6654 26.1157 19.8312 26.1606 20 26.16C20.1771 26.1479 20.3487 26.093 20.5 26L25.4 22.84C25.5403 22.7494 25.6557 22.625 25.7356 22.4783C25.8155 22.3315 25.8574 22.1671 25.8574 22C25.8574 21.833 25.8155 21.6686 25.7356 21.5218C25.6557 21.3751 25.5403 21.2507 25.4 21.16ZM21 23.32V20.68L23 22L21 23.32ZM29.38 14.5101L27.83 14.31C23.991 13.84 20.109 13.84 16.27 14.31L14.72 14.5101C13.9747 14.5912 13.2854 14.9439 12.7837 15.501C12.282 16.058 12.003 16.7804 12 17.5301V26.47C12.0064 27.2086 12.2805 27.9198 12.7715 28.4715C13.2626 29.0233 13.9372 29.3781 14.67 29.47L16.22 29.66C18.1378 29.8931 20.0681 30.0066 22 30C23.9323 30 25.8627 29.8798 27.78 29.64L29.33 29.4501C30.0628 29.3581 30.7374 29.0033 31.2285 28.4515C31.7195 27.8998 31.9936 27.1886 32 26.4501V17.5301C31.9985 16.788 31.7265 16.072 31.235 15.5161C30.7435 14.9602 30.0662 14.6025 29.33 14.5101H29.38ZM30.05 26.51C30.0508 26.762 29.9565 27.0049 29.7859 27.1903C29.6154 27.3757 29.3811 27.4899 29.13 27.51L27.58 27.7001C23.9077 28.1601 20.1923 28.1601 16.52 27.7001L14.97 27.51C14.7189 27.4899 14.4846 27.3757 14.3141 27.1903C14.1435 27.0049 14.0492 26.762 14.05 26.51V17.5301C14.0619 17.282 14.1606 17.046 14.3287 16.8632C14.4968 16.6805 14.7238 16.5626 14.97 16.5301L16.47 16.3001C20.1427 15.8467 23.8573 15.8467 27.53 16.3001L29.08 16.49C29.3262 16.5226 29.5532 16.6405 29.7213 16.8232C29.8894 17.006 29.9881 17.242 30 17.49L30.05 26.51Z" fill="#7F848D"/>
</svg>
